<svg viewBox="0 0 13 12" fill="none" xmlns="http://www.w3.org/2000/svg">
<path fill-rule="evenodd" clip-rule="evenodd" d="M1.68602 0.272413C1.28418 -0.106461 0.651288 -0.0878466 0.272413 0.31399C-0.106461 0.715826 -0.0878466 1.34872 0.31399 1.72759L4.70299 5.86579L0.313996 10.004C-0.0878401 10.3829 -0.106455 11.0157 0.27242 11.4176C0.651294 11.8194 1.28419 11.838 1.68602 11.4592L6.16068 7.24019L10.6353 11.4592C11.0372 11.838 11.6701 11.8194 12.0489 11.4176C12.4278 11.0157 12.4092 10.3829 12.0074 10.004L7.61838 5.86579L12.0074 1.72759C12.4092 1.34872 12.4278 0.715826 12.049 0.31399C11.6701 -0.0878466 11.0372 -0.106461 10.6354 0.272413L6.16068 4.49139L1.68602 0.272413Z" fill="white"/>
</svg>
