<svg viewBox="0 0 16 19" fill="none" xmlns="http://www.w3.org/2000/svg">
<path fill-rule="evenodd" clip-rule="evenodd" d="M15.5717 1.51465C15.8558 1.04107 15.7023 0.426806 15.2287 0.142658C14.7551 -0.14149 14.1408 0.0120751 13.8567 0.485655L8.241 9.84515L2.89214 2.00015H9.57137C10.1237 2.00015 10.5714 1.55244 10.5714 1.00015C10.5714 0.447866 10.1237 0.000151155 9.57137 0.000151155H1C0.629337 0.000151155 0.289079 0.205179 0.115882 0.532892C-0.0573147 0.860604 -0.0350344 1.25723 0.173775 1.56349L6.59935 10.9877L7.2923 12.0271C7.28792 12.0651 7.28566 12.1037 7.28566 12.1429V17.2857C7.28566 17.838 7.73338 18.2857 8.28566 18.2857C8.83795 18.2857 9.28566 17.838 9.28566 17.2857V12.1429C9.28566 12.0967 9.28253 12.0512 9.27646 12.0067L15.5717 1.51465Z" fill="white"/>
</svg>
