<svg viewBox="0 0 22 29" fill="none" xmlns="http://www.w3.org/2000/svg">
<path fill-rule="evenodd" clip-rule="evenodd" d="M10.9999 2.27021e-05C11.0087 7.56987e-06 11.0175 0 11.0263 0V9.08906e-05C26.1718 0.0522653 25.1342 22.552 11.0263 28.8481V28.8716C11.0175 28.8677 11.0087 28.8638 10.9999 28.8599C10.9911 28.8638 10.9823 28.8677 10.9735 28.8716V28.8481C-3.13442 22.552 -4.17203 0.0522653 10.9735 9.08906e-05V0C10.9823 0 10.9911 7.57063e-06 10.9999 2.27021e-05ZM2.11014 12.23C1.88145 12.4691 1.46358 16.4019 3.6176 18.4619C5.77162 20.5218 9.7852 19.9227 9.7852 19.9227C9.7852 19.9227 10.5571 15.5177 8.40306 13.4578C6.24905 11.3979 2.11014 12.23 2.11014 12.23ZM19.8896 12.23C20.1183 12.4691 20.5362 16.4019 18.3821 18.4619C16.2281 20.5218 12.2146 19.9227 12.2146 19.9227C12.2146 19.9227 11.4427 15.5177 13.5967 13.4578C15.7507 11.3979 19.8896 12.23 19.8896 12.23Z" fill="#8C8C8C"/>
</svg>
