<svg viewBox="0 0 32 32" fill="none" xmlns="http://www.w3.org/2000/svg">
<path d="M12.3637 21.2131V10.7869C12.364 10.6565 12.3993 10.5285 12.4659 10.4164C12.5326 10.3042 12.6282 10.2121 12.7428 10.1497C12.8573 10.0872 12.9865 10.0567 13.1169 10.0613C13.2472 10.0659 13.3739 10.1056 13.4837 10.176L21.5943 15.3876C21.697 15.4534 21.7815 15.544 21.84 15.651C21.8985 15.758 21.9292 15.878 21.9292 16C21.9292 16.122 21.8985 16.242 21.84 16.349C21.7815 16.456 21.697 16.5466 21.5943 16.6124L13.4837 21.8255C13.3739 21.8959 13.2472 21.9355 13.1169 21.9402C12.9865 21.9448 12.8573 21.9143 12.7428 21.8518C12.6282 21.7893 12.5326 21.6972 12.4659 21.5851C12.3993 21.473 12.364 21.345 12.3637 21.2146V21.2131Z" fill="white"/>
<path fill-rule="evenodd" clip-rule="evenodd" d="M16 2.18182C12.3352 2.18182 8.82048 3.63766 6.22907 6.22907C3.63766 8.82048 2.18182 12.3352 2.18182 16C2.18182 19.6648 3.63766 23.1795 6.22907 25.7709C8.82048 28.3623 12.3352 29.8182 16 29.8182C19.6648 29.8182 23.1795 28.3623 25.7709 25.7709C28.3623 23.1795 29.8182 19.6648 29.8182 16C29.8182 12.3352 28.3623 8.82048 25.7709 6.22907C23.1795 3.63766 19.6648 2.18182 16 2.18182ZM0 16C0 7.16364 7.16364 0 16 0C24.8364 0 32 7.16364 32 16C32 24.8364 24.8364 32 16 32C7.16364 32 0 24.8364 0 16Z" fill="white"/>
</svg>
