<svg viewBox="0 0 14 22" fill="none" xmlns="http://www.w3.org/2000/svg">
<path d="M14 5.34401V6.93756C14 7.08345 13.953 7.20241 13.8589 7.29667C13.7648 7.39094 13.6461 7.43807 13.5005 7.43807H10.8819C10.6422 8.93736 9.97248 10.1561 8.8704 11.0943C7.76832 12.0324 6.33472 12.6048 4.56736 12.8135C6.30336 14.6674 8.68896 17.4595 11.7242 21.1875C11.8698 21.3536 11.8899 21.5309 11.7869 21.7194C11.704 21.9057 11.5539 22 11.3344 22H8.29472C8.12896 22 7.99904 21.9372 7.90496 21.8115C4.72416 17.9892 2.13696 15.0153 0.14112 12.8921C0.0470401 12.7978 0 12.6833 0 12.5487V10.5646C0 10.4299 0.0492801 10.311 0.14784 10.2122C0.2464 10.1134 0.36288 10.0641 0.49952 10.0641H2.24672C3.61984 10.0641 4.72416 9.83962 5.55968 9.39298C6.39744 8.94409 6.92832 8.29321 7.1568 7.44032H0.49952C0.35392 7.44032 0.2352 7.39318 0.14112 7.29892C0.0470401 7.20465 0 7.0857 0 6.93981V5.34625C0 5.20037 0.0470401 5.08141 0.14112 4.98714C0.2352 4.89288 0.35392 4.84575 0.49952 4.84575H6.93952C6.34816 3.66966 4.95488 3.07937 2.76192 3.07937H0.49952C0.36512 3.07937 0.2464 3.02999 0.14784 2.93124C0.0492801 2.83248 0 2.71577 0 2.57886V0.500507C0 0.35462 0.0470401 0.235664 0.14112 0.141397C0.2352 0.0471306 0.35392 0 0.49952 0H13.4714C13.617 0 13.7357 0.0471306 13.8298 0.141397C13.9238 0.235664 13.9709 0.35462 13.9709 0.500507V2.09406C13.9709 2.23995 13.9238 2.3589 13.8298 2.45317C13.7357 2.54744 13.617 2.59457 13.4714 2.59457H9.83808C10.3264 3.22975 10.6602 3.97939 10.8349 4.8435H13.5005C13.6461 4.8435 13.7648 4.89063 13.8589 4.9849C13.953 5.07917 14 5.19812 14 5.34401Z"/>
</svg>
