<svg viewBox="0 0 14 19" fill="none" xmlns="http://www.w3.org/2000/svg">
<path fill-rule="evenodd" clip-rule="evenodd" d="M5.5 1.00001C5.5 0.609485 5.27266 0.254687 4.91786 0.0915015C4.56306 -0.071684 4.14572 -0.0133956 3.84921 0.240758L0.349212 3.24076C-0.0701143 3.60018 -0.118676 4.23148 0.240746 4.65081C0.600168 5.07013 1.23147 5.11869 1.65079 4.75927L3.5 3.17423V17C3.5 17.5523 3.94772 18 4.5 18C5.05229 18 5.5 17.5523 5.5 17V1.00001ZM10.5 1.00001C10.5 0.44773 10.0523 1.44009e-05 9.5 1.44009e-05C8.94772 1.44009e-05 8.5 0.44773 8.5 1.00001V17.5C8.5 17.9272 8.77139 18.3072 9.17547 18.4459C9.57955 18.5845 10.0271 18.4512 10.2894 18.114L13.7894 13.614C14.1284 13.178 14.0499 12.5497 13.6139 12.2107C13.178 11.8716 12.5497 11.9501 12.2107 12.3861L10.5 14.5855V1.00001Z" fill="white"/>
</svg>
